<?xml version="1.0" encoding="UTF-8"?>
<!DOCTYPE svg PUBLIC "-//W3C//DTD SVG 1.1//EN" "http://www.w3.org/Graphics/SVG/1.1/DTD/svg11.dtd">
<svg xmlns="http://www.w3.org/2000/svg" version="1.1" width="768px" height="768px" style="shape-rendering:geometricPrecision; text-rendering:geometricPrecision; image-rendering:optimizeQuality; fill-rule:evenodd; clip-rule:evenodd" xmlns:xlink="http://www.w3.org/1999/xlink">
<g><path style="opacity:1" fill="#d80027" d="M 355.5,-0.5 C 374.167,-0.5 392.833,-0.5 411.5,-0.5C 418.75,0.387071 426.083,1.38707 433.5,2.5C 433.5,112.833 433.5,223.167 433.5,333.5C 543.833,333.5 654.167,333.5 764.5,333.5C 765.614,340.944 766.614,348.278 767.5,355.5C 767.5,374.167 767.5,392.833 767.5,411.5C 766.614,418.722 765.614,426.056 764.5,433.5C 654.167,433.5 543.833,433.5 433.5,433.5C 433.5,543.833 433.5,654.167 433.5,764.5C 426.083,765.613 418.75,766.613 411.5,767.5C 392.833,767.5 374.167,767.5 355.5,767.5C 348.278,766.614 340.944,765.614 333.5,764.5C 333.5,654.167 333.5,543.833 333.5,433.5C 223.167,433.5 112.833,433.5 2.5,433.5C 1.38707,426.083 0.387071,418.75 -0.5,411.5C -0.5,392.833 -0.5,374.167 -0.5,355.5C 0.387071,348.25 1.38707,340.917 2.5,333.5C 112.833,333.5 223.167,333.5 333.5,333.5C 333.5,223.167 333.5,112.833 333.5,2.5C 340.944,1.38621 348.278,0.386214 355.5,-0.5 Z"/></g>
<g><path style="opacity:0.998" fill="#efefef" d="M 332.5,2.5 C 332.5,112.5 332.5,222.5 332.5,332.5C 222.5,332.5 112.5,332.5 2.5,332.5C 4.31876,315.737 7.65209,299.404 12.5,283.5C 79.1675,283.667 145.834,283.5 212.5,283C 211.956,282.283 211.289,281.783 210.5,281.5C 166.833,237.167 122.833,193.167 78.5,149.5C 81.8207,144.848 85.4874,140.515 89.5,136.5C 137.833,185.5 186.5,234.167 235.5,282.5C 251.005,283.827 266.672,283.827 282.5,282.5C 282.376,281.893 282.043,281.56 281.5,281.5C 225.451,224.451 168.784,168.118 111.5,112.5C 123.247,100.083 135.914,88.7499 149.5,78.5C 193.167,122.833 237.167,166.833 281.5,210.5C 281.783,211.289 282.283,211.956 283,212.5C 283.5,145.834 283.667,79.1675 283.5,12.5C 299.43,7.78514 315.763,4.4518 332.5,2.5 Z"/></g>
<g><path style="opacity:0.998" fill="#efefef" d="M 434.5,2.5 C 451.261,4.31847 467.595,7.6518 483.5,12.5C 483.333,79.1675 483.5,145.834 484,212.5C 484.717,211.956 485.217,211.289 485.5,210.5C 529.833,166.833 573.833,122.833 617.5,78.5C 622.152,81.8207 626.485,85.4874 630.5,89.5C 581.535,137.965 532.701,186.632 484,235.5C 483.167,251.177 483.334,266.844 484.5,282.5C 541.904,226.097 598.57,169.097 654.5,111.5C 666.917,123.247 678.25,135.914 688.5,149.5C 644.167,193.167 600.167,237.167 556.5,281.5C 555.711,281.783 555.044,282.283 554.5,283C 621.166,283.5 687.833,283.667 754.5,283.5C 759.348,299.404 762.681,315.737 764.5,332.5C 654.5,332.5 544.5,332.5 434.5,332.5C 434.5,222.5 434.5,112.5 434.5,2.5 Z"/></g>
<g><path style="opacity:1" fill="#0553b4" d="M 280.5,13.5 C 281.833,45.9931 282.5,78.8265 282.5,112C 282.5,145.002 282.167,177.835 281.5,210.5C 237.167,166.833 193.167,122.833 149.5,78.5C 188.592,48.1214 232.259,26.4547 280.5,13.5 Z"/></g>
<g><path style="opacity:1" fill="#2c6ebe" d="M 280.5,13.5 C 281.209,12.596 282.209,12.2627 283.5,12.5C 283.667,79.1675 283.5,145.834 283,212.5C 282.283,211.956 281.783,211.289 281.5,210.5C 282.167,177.835 282.5,145.002 282.5,112C 282.5,78.8265 281.833,45.9931 280.5,13.5 Z"/></g>
<g><path style="opacity:1" fill="#2b6dbe" d="M 483.5,12.5 C 484.791,12.2627 485.791,12.596 486.5,13.5C 485.167,45.9931 484.5,78.8265 484.5,112C 484.5,145.002 484.833,177.835 485.5,210.5C 485.217,211.289 484.717,211.956 484,212.5C 483.5,145.834 483.333,79.1675 483.5,12.5 Z"/></g>
<g><path style="opacity:1" fill="#0553b4" d="M 486.5,13.5 C 534.741,26.4547 578.408,48.1214 617.5,78.5C 573.833,122.833 529.833,166.833 485.5,210.5C 484.833,177.835 484.5,145.002 484.5,112C 484.5,78.8265 485.167,45.9931 486.5,13.5 Z"/></g>
<g><path style="opacity:1" fill="#d80c2a" d="M 630.5,89.5 C 639.405,95.7339 647.405,103.067 654.5,111.5C 598.57,169.097 541.904,226.097 484.5,282.5C 483.334,266.844 483.167,251.177 484,235.5C 532.701,186.632 581.535,137.965 630.5,89.5 Z"/></g>
<g><path style="opacity:1" fill="#d80c2a" d="M 111.5,112.5 C 168.784,168.118 225.451,224.451 281.5,281.5C 266.342,282.496 251.009,282.83 235.5,282.5C 186.5,234.167 137.833,185.5 89.5,136.5C 95.7339,127.595 103.067,119.595 111.5,112.5 Z"/></g>
<g><path style="opacity:1" fill="#0553b4" d="M 78.5,149.5 C 122.833,193.167 166.833,237.167 210.5,281.5C 177.835,282.167 145.002,282.5 112,282.5C 78.8265,282.5 45.9931,281.833 13.5,280.5C 26.4547,232.259 48.1214,188.592 78.5,149.5 Z"/></g>
<g><path style="opacity:1" fill="#0553b4" d="M 688.5,149.5 C 718.879,188.592 740.545,232.259 753.5,280.5C 721.007,281.833 688.174,282.5 655,282.5C 621.998,282.5 589.165,282.167 556.5,281.5C 600.167,237.167 644.167,193.167 688.5,149.5 Z"/></g>
<g><path style="opacity:1" fill="#3172c0" d="M 13.5,280.5 C 45.9931,281.833 78.8265,282.5 112,282.5C 145.002,282.5 177.835,282.167 210.5,281.5C 211.289,281.783 211.956,282.283 212.5,283C 145.834,283.5 79.1675,283.667 12.5,283.5C 12.2627,282.209 12.596,281.209 13.5,280.5 Z"/></g>
<g><path style="opacity:1" fill="#dd3250" d="M 281.5,281.5 C 282.043,281.56 282.376,281.893 282.5,282.5C 266.672,283.827 251.005,283.827 235.5,282.5C 251.009,282.83 266.342,282.496 281.5,281.5 Z"/></g>
<g><path style="opacity:1" fill="#3172c0" d="M 753.5,280.5 C 754.404,281.209 754.737,282.209 754.5,283.5C 687.833,283.667 621.166,283.5 554.5,283C 555.044,282.283 555.711,281.783 556.5,281.5C 589.165,282.167 621.998,282.5 655,282.5C 688.174,282.5 721.007,281.833 753.5,280.5 Z"/></g>
<g><path style="opacity:1" fill="#eedee1" d="M 332.5,2.5 C 332.833,2.5 333.167,2.5 333.5,2.5C 333.5,112.833 333.5,223.167 333.5,333.5C 223.167,333.5 112.833,333.5 2.5,333.5C 2.5,333.167 2.5,332.833 2.5,332.5C 112.5,332.5 222.5,332.5 332.5,332.5C 332.5,222.5 332.5,112.5 332.5,2.5 Z"/></g>
<g><path style="opacity:0.999" fill="#eddde1" d="M 433.5,2.5 C 433.833,2.5 434.167,2.5 434.5,2.5C 434.5,112.5 434.5,222.5 434.5,332.5C 544.5,332.5 654.5,332.5 764.5,332.5C 764.5,332.833 764.5,333.167 764.5,333.5C 654.167,333.5 543.833,333.5 433.5,333.5C 433.5,223.167 433.5,112.833 433.5,2.5 Z"/></g>
<g><path style="opacity:0.998" fill="#efefef" d="M 2.5,434.5 C 112.5,434.5 222.5,434.5 332.5,434.5C 332.5,544.5 332.5,654.5 332.5,764.5C 315.763,762.548 299.43,759.215 283.5,754.5C 283.667,687.833 283.5,621.166 283,554.5C 282.283,555.044 281.783,555.711 281.5,556.5C 237.167,600.167 193.167,644.167 149.5,688.5C 144.848,685.179 140.515,681.513 136.5,677.5C 185.465,629.035 234.299,580.368 283,531.5C 283.833,515.823 283.666,500.156 282.5,484.5C 225.096,540.903 168.43,597.903 112.5,655.5C 100.083,643.753 88.7499,631.086 78.5,617.5C 122.833,573.833 166.833,529.833 210.5,485.5C 211.289,485.217 211.956,484.717 212.5,484C 145.834,483.5 79.1675,483.333 12.5,483.5C 7.65209,467.596 4.31876,451.263 2.5,434.5 Z"/></g>
<g><path style="opacity:1" fill="#eddbdf" d="M 2.5,434.5 C 2.5,434.167 2.5,433.833 2.5,433.5C 112.833,433.5 223.167,433.5 333.5,433.5C 333.5,543.833 333.5,654.167 333.5,764.5C 333.167,764.5 332.833,764.5 332.5,764.5C 332.5,654.5 332.5,544.5 332.5,434.5C 222.5,434.5 112.5,434.5 2.5,434.5 Z"/></g>
<g><path style="opacity:0.999" fill="#eedcdf" d="M 764.5,433.5 C 764.5,433.833 764.5,434.167 764.5,434.5C 654.5,434.5 544.5,434.5 434.5,434.5C 434.5,544.5 434.5,654.5 434.5,764.5C 434.167,764.5 433.833,764.5 433.5,764.5C 433.5,654.167 433.5,543.833 433.5,433.5C 543.833,433.5 654.167,433.5 764.5,433.5 Z"/></g>
<g><path style="opacity:0.998" fill="#efefef" d="M 764.5,434.5 C 762.681,451.263 759.348,467.596 754.5,483.5C 687.833,483.333 621.166,483.5 554.5,484C 555.044,484.717 555.711,485.217 556.5,485.5C 600.167,529.833 644.167,573.833 688.5,617.5C 685.179,622.152 681.513,626.485 677.5,630.5C 629.167,581.5 580.5,532.833 531.5,484.5C 515.995,483.173 500.328,483.173 484.5,484.5C 484.624,485.107 484.957,485.44 485.5,485.5C 541.522,542.522 598.189,598.855 655.5,654.5C 643.753,666.917 631.086,678.25 617.5,688.5C 573.833,644.167 529.833,600.167 485.5,556.5C 485.217,555.711 484.717,555.044 484,554.5C 483.5,621.166 483.333,687.833 483.5,754.5C 467.596,759.348 451.263,762.681 434.5,764.5C 434.5,654.5 434.5,544.5 434.5,434.5C 544.5,434.5 654.5,434.5 764.5,434.5 Z"/></g>
<g><path style="opacity:1" fill="#3172c0" d="M 12.5,483.5 C 79.1675,483.333 145.834,483.5 212.5,484C 211.956,484.717 211.289,485.217 210.5,485.5C 177.835,484.833 145.002,484.5 112,484.5C 78.8265,484.5 45.9931,485.167 13.5,486.5C 12.596,485.791 12.2627,484.791 12.5,483.5 Z"/></g>
<g><path style="opacity:1" fill="#dd3350" d="M 531.5,484.5 C 515.991,484.17 500.658,484.504 485.5,485.5C 484.957,485.44 484.624,485.107 484.5,484.5C 500.328,483.173 515.995,483.173 531.5,484.5 Z"/></g>
<g><path style="opacity:1" fill="#3172c0" d="M 754.5,483.5 C 754.737,484.791 754.404,485.791 753.5,486.5C 721.007,485.167 688.174,484.5 655,484.5C 621.998,484.5 589.165,484.833 556.5,485.5C 555.711,485.217 555.044,484.717 554.5,484C 621.166,483.5 687.833,483.333 754.5,483.5 Z"/></g>
<g><path style="opacity:1" fill="#0553b4" d="M 210.5,485.5 C 166.833,529.833 122.833,573.833 78.5,617.5C 48.1214,578.408 26.4547,534.741 13.5,486.5C 45.9931,485.167 78.8265,484.5 112,484.5C 145.002,484.5 177.835,484.833 210.5,485.5 Z"/></g>
<g><path style="opacity:1" fill="#d80c2a" d="M 485.5,485.5 C 500.658,484.504 515.991,484.17 531.5,484.5C 580.5,532.833 629.167,581.5 677.5,630.5C 671.266,639.405 663.933,647.405 655.5,654.5C 598.189,598.855 541.522,542.522 485.5,485.5 Z"/></g>
<g><path style="opacity:1" fill="#0653b4" d="M 753.5,486.5 C 740.545,534.741 718.879,578.408 688.5,617.5C 644.167,573.833 600.167,529.833 556.5,485.5C 589.165,484.833 621.998,484.5 655,484.5C 688.174,484.5 721.007,485.167 753.5,486.5 Z"/></g>
<g><path style="opacity:1" fill="#d80d2a" d="M 136.5,677.5 C 127.595,671.266 119.595,663.933 112.5,655.5C 168.43,597.903 225.096,540.903 282.5,484.5C 283.666,500.156 283.833,515.823 283,531.5C 234.299,580.368 185.465,629.035 136.5,677.5 Z"/></g>
<g><path style="opacity:1" fill="#2b6dbe" d="M 283.5,754.5 C 282.209,754.737 281.209,754.404 280.5,753.5C 281.833,721.007 282.5,688.174 282.5,655C 282.5,621.998 282.167,589.165 281.5,556.5C 281.783,555.711 282.283,555.044 283,554.5C 283.5,621.166 283.667,687.833 283.5,754.5 Z"/></g>
<g><path style="opacity:1" fill="#2c6ebe" d="M 485.5,556.5 C 484.833,589.165 484.5,621.998 484.5,655C 484.5,688.174 485.167,721.007 486.5,753.5C 485.791,754.404 484.791,754.737 483.5,754.5C 483.333,687.833 483.5,621.166 484,554.5C 484.717,555.044 485.217,555.711 485.5,556.5 Z"/></g>
<g><path style="opacity:1" fill="#0553b4" d="M 281.5,556.5 C 282.167,589.165 282.5,621.998 282.5,655C 282.5,688.174 281.833,721.007 280.5,753.5C 232.259,740.545 188.592,718.879 149.5,688.5C 193.167,644.167 237.167,600.167 281.5,556.5 Z"/></g>
<g><path style="opacity:1" fill="#0553b4" d="M 485.5,556.5 C 529.833,600.167 573.833,644.167 617.5,688.5C 578.408,718.879 534.741,740.545 486.5,753.5C 485.167,721.007 484.5,688.174 484.5,655C 484.5,621.998 484.833,589.165 485.5,556.5 Z"/></g>
</svg>
