<?xml version="1.0" encoding="UTF-8"?>
<!DOCTYPE svg PUBLIC "-//W3C//DTD SVG 1.1//EN" "http://www.w3.org/Graphics/SVG/1.1/DTD/svg11.dtd">
<svg xmlns="http://www.w3.org/2000/svg" version="1.1" width="256px" height="256px" style="shape-rendering:geometricPrecision; text-rendering:geometricPrecision; image-rendering:optimizeQuality; fill-rule:evenodd; clip-rule:evenodd" xmlns:xlink="http://www.w3.org/1999/xlink">
<g><path style="opacity:0.987" fill="#940923" d="M 153.5,15.5 C 202.857,30.0293 232.024,62.696 241,113.5C 241.499,117.821 241.666,122.154 241.5,126.5C 239.167,126.5 236.833,126.5 234.5,126.5C 235.251,122.95 236.251,119.45 237.5,116C 229.377,63.8775 199.71,31.5442 148.5,19C 102.394,11.9148 65.2277,26.7481 37,63.5C 25.0987,80.3696 18.9321,99.0363 18.5,119.5C 22.3133,120.874 21.9799,121.707 17.5,122C 18.9733,122.71 19.6399,123.876 19.5,125.5C 17.1667,125.5 14.8333,125.5 12.5,125.5C 12.5,122.167 12.5,118.833 12.5,115.5C 18.8235,72.0171 41.8235,40.8505 81.5,22C 105.017,13.2915 129.017,11.1249 153.5,15.5 Z"/></g>
<g><path style="opacity:0.24" fill="#020101" d="M 153.5,15.5 C 201.997,26.1617 232.83,55.495 246,103.5C 255.964,155.296 240.464,197.463 199.5,230C 168.023,250.261 134.023,255.927 97.5,247C 48.6547,231.822 20.1547,198.988 12,148.5C 11.1743,137.326 11.341,126.326 12.5,115.5C 12.5,118.833 12.5,122.167 12.5,125.5C 12.5,126.167 12.5,126.833 12.5,127.5C 12.5,127.833 12.5,128.167 12.5,128.5C 14.6646,180.347 39.6646,216.181 87.5,236C 112.719,244.281 138.052,244.615 163.5,237C 167.367,235.442 171.034,233.608 174.5,231.5C 201.811,219.689 221.311,200.022 233,172.5C 238.97,158.146 241.804,143.146 241.5,127.5C 241.5,127.167 241.5,126.833 241.5,126.5C 241.666,122.154 241.499,117.821 241,113.5C 232.024,62.696 202.857,30.0293 153.5,15.5 Z"/></g>
<g><path style="opacity:1" fill="#a01029" d="M 234.5,126.5 C 225.833,126.5 217.167,126.5 208.5,126.5C 211.308,122.55 213.308,118.217 214.5,113.5C 216.293,111.574 217.293,109.241 217.5,106.5C 219.627,98.1129 219.961,89.7795 218.5,81.5C 218.59,78.8478 217.924,76.5145 216.5,74.5C 216.154,70.1476 214.488,66.4809 211.5,63.5C 210.567,60.6298 208.9,58.2964 206.5,56.5C 202.737,50.9474 198.07,46.2807 192.5,42.5C 186.834,38.3313 180.834,34.6647 174.5,31.5C 142.746,15.5502 111.079,15.5502 79.5,31.5C 72.9898,34.346 66.9898,38.0127 61.5,42.5C 57.1396,46.1938 53.1396,50.1938 49.5,54.5C 46.7232,56.9505 44.7232,59.9505 43.5,63.5C 40.5124,66.4809 38.8457,70.1476 38.5,74.5C 37.0762,76.5145 36.4095,78.8478 36.5,81.5C 35.5128,86.3054 35.1795,91.3054 35.5,96.5C 35.9595,99.8774 36.6261,103.211 37.5,106.5C 39.685,113.868 42.685,120.868 46.5,127.5C 42.5,127.5 38.5,127.5 34.5,127.5C 27.1667,127.5 19.8333,127.5 12.5,127.5C 12.5,126.833 12.5,126.167 12.5,125.5C 14.8333,125.5 17.1667,125.5 19.5,125.5C 19.6399,123.876 18.9733,122.71 17.5,122C 21.9799,121.707 22.3133,120.874 18.5,119.5C 18.9321,99.0363 25.0987,80.3696 37,63.5C 65.2277,26.7481 102.394,11.9148 148.5,19C 199.71,31.5442 229.377,63.8775 237.5,116C 236.251,119.45 235.251,122.95 234.5,126.5 Z"/></g>
<g><path style="opacity:1" fill="#e9c4cb" d="M 174.5,31.5 C 172.974,33.13 170.974,33.9633 168.5,34C 169.167,34.3333 169.833,34.6667 170.5,35C 141.833,35.6667 113.167,35.6667 84.5,35C 85.1667,34.6667 85.8333,34.3333 86.5,34C 83.8091,33.8442 81.4758,33.0109 79.5,31.5C 111.079,15.5502 142.746,15.5502 174.5,31.5 Z"/></g>
<g><path style="opacity:1" fill="#e6b9c2" d="M 79.5,31.5 C 81.4758,33.0109 83.8091,33.8442 86.5,34C 85.8333,34.3333 85.1667,34.6667 84.5,35C 113.167,35.6667 141.833,35.6667 170.5,35C 169.833,34.6667 169.167,34.3333 168.5,34C 170.974,33.9633 172.974,33.13 174.5,31.5C 180.834,34.6647 186.834,38.3313 192.5,42.5C 148.833,43.8333 105.167,43.8333 61.5,42.5C 66.9898,38.0127 72.9898,34.346 79.5,31.5 Z"/></g>
<g><path style="opacity:1" fill="#e3acb7" d="M 61.5,42.5 C 105.167,43.8333 148.833,43.8333 192.5,42.5C 198.07,46.2807 202.737,50.9474 206.5,56.5C 198.16,56.6664 189.827,56.4997 181.5,56C 183.679,55.5581 184.345,54.5581 183.5,53C 146.167,52.3333 108.833,52.3333 71.5,53C 70.6548,54.5581 71.3215,55.5581 73.5,56C 69.5,56.1667 65.5,56.3333 61.5,56.5C 57.107,56.4907 53.107,55.824 49.5,54.5C 53.1396,50.1938 57.1396,46.1938 61.5,42.5 Z"/></g>
<g><path style="opacity:1" fill="#e2a0ad" d="M 206.5,56.5 C 208.9,58.2964 210.567,60.6298 211.5,63.5C 200.376,65.1289 189.042,65.7956 177.5,65.5C 177.264,63.9509 177.264,62.4509 177.5,61C 144.167,60.3333 110.833,60.3333 77.5,61C 77.7358,62.4509 77.7358,63.9509 77.5,65.5C 65.9578,65.7956 54.6245,65.1289 43.5,63.5C 44.7232,59.9505 46.7232,56.9505 49.5,54.5C 53.107,55.824 57.107,56.4907 61.5,56.5C 65.5,56.3333 69.5,56.1667 73.5,56C 71.3215,55.5581 70.6548,54.5581 71.5,53C 108.833,52.3333 146.167,52.3333 183.5,53C 184.345,54.5581 183.679,55.5581 181.5,56C 189.827,56.4997 198.16,56.6664 206.5,56.5 Z"/></g>
<g><path style="opacity:1" fill="#e599a7" d="M 177.5,65.5 C 177.167,65.5 176.833,65.5 176.5,65.5C 143.833,65.5 111.167,65.5 78.5,65.5C 78.1667,65.5 77.8333,65.5 77.5,65.5C 77.7358,63.9509 77.7358,62.4509 77.5,61C 110.833,60.3333 144.167,60.3333 177.5,61C 177.264,62.4509 177.264,63.9509 177.5,65.5 Z"/></g>
<g><path style="opacity:1" fill="#e691a1" d="M 78.5,65.5 C 111.167,65.5 143.833,65.5 176.5,65.5C 176.5,67.8333 176.5,70.1667 176.5,72.5C 160.37,70.67 144.036,69.67 127.5,69.5C 110.964,69.67 94.6303,70.67 78.5,72.5C 78.5,70.1667 78.5,67.8333 78.5,65.5 Z"/></g>
<g><path style="opacity:1" fill="#d88898" d="M 43.5,63.5 C 54.6245,65.1289 65.9578,65.7956 77.5,65.5C 77.8333,65.5 78.1667,65.5 78.5,65.5C 78.5,67.8333 78.5,70.1667 78.5,72.5C 78.4606,73.5832 78.1272,74.5832 77.5,75.5C 73.2172,76.4922 68.8839,76.8256 64.5,76.5C 57.9733,76.2362 51.64,76.9029 45.5,78.5C 43.5,78.3333 41.5,78.1667 39.5,78C 38.6634,76.9887 38.33,75.8221 38.5,74.5C 38.8457,70.1476 40.5124,66.4809 43.5,63.5 Z"/></g>
<g><path style="opacity:1" fill="#d88898" d="M 211.5,63.5 C 214.488,66.4809 216.154,70.1476 216.5,74.5C 216.67,75.8221 216.337,76.9887 215.5,78C 213.5,78.1667 211.5,78.3333 209.5,78.5C 203.36,76.9029 197.027,76.2362 190.5,76.5C 186.116,76.8256 181.783,76.4922 177.5,75.5C 176.873,74.5832 176.539,73.5832 176.5,72.5C 176.5,70.1667 176.5,67.8333 176.5,65.5C 176.833,65.5 177.167,65.5 177.5,65.5C 189.042,65.7956 200.376,65.1289 211.5,63.5 Z"/></g>
<g><path style="opacity:1" fill="#e68598" d="M 176.5,72.5 C 176.539,73.5832 176.873,74.5832 177.5,75.5C 181.783,76.4922 186.116,76.8256 190.5,76.5C 190.461,77.5832 190.127,78.5832 189.5,79.5C 185.555,80.4909 181.555,80.8242 177.5,80.5C 173.098,80.2281 168.765,80.5614 164.5,81.5C 163.509,79.6769 162.176,78.1769 160.5,77C 138.5,76.3333 116.5,76.3333 94.5,77C 92.8243,78.1769 91.4909,79.6769 90.5,81.5C 82.222,80.5301 73.8886,80.1968 65.5,80.5C 65.1667,79.1667 64.8333,77.8333 64.5,76.5C 68.8839,76.8256 73.2172,76.4922 77.5,75.5C 78.1272,74.5832 78.4606,73.5832 78.5,72.5C 94.6303,70.67 110.964,69.67 127.5,69.5C 144.036,69.67 160.37,70.67 176.5,72.5 Z"/></g>
<g><path style="opacity:1" fill="#d1798a" d="M 38.5,74.5 C 38.33,75.8221 38.6634,76.9887 39.5,78C 41.5,78.1667 43.5,78.3333 45.5,78.5C 51.64,76.9029 57.9733,76.2362 64.5,76.5C 64.8333,77.8333 65.1667,79.1667 65.5,80.5C 66.7914,81.4728 66.7914,82.4728 65.5,83.5C 62.4937,84.7485 59.4937,84.7485 56.5,83.5C 54.4807,84.1329 54.1474,85.1329 55.5,86.5C 49.1667,86.5 42.8333,86.5 36.5,86.5C 36.5,84.8333 36.5,83.1667 36.5,81.5C 36.4095,78.8478 37.0762,76.5145 38.5,74.5 Z"/></g>
<g><path style="opacity:1" fill="#e9788e" d="M 177.5,80.5 C 178.038,82.1172 178.371,83.7839 178.5,85.5C 185.167,86.1667 191.833,86.8333 198.5,87.5C 198.567,88.9587 198.234,90.2921 197.5,91.5C 191.468,90.9941 185.468,90.1608 179.5,89C 177.768,87.3469 175.601,86.5136 173,86.5C 170.705,86.5465 168.871,87.2132 167.5,88.5C 164.167,88.5 160.833,88.5 157.5,88.5C 156.522,88.189 155.855,87.5223 155.5,86.5C 136.833,85.1667 118.167,85.1667 99.5,86.5C 99.2907,87.086 98.9574,87.586 98.5,88C 92.9331,88.4899 87.4331,87.9899 82,86.5C 76.7876,88.3376 71.621,90.0043 66.5,91.5C 63.4816,91.6646 60.4816,91.498 57.5,91C 56.9011,89.3775 56.2344,87.8775 55.5,86.5C 54.1474,85.1329 54.4807,84.1329 56.5,83.5C 59.4937,84.7485 62.4937,84.7485 65.5,83.5C 66.7914,82.4728 66.7914,81.4728 65.5,80.5C 73.8886,80.1968 82.222,80.5301 90.5,81.5C 91.4909,79.6769 92.8243,78.1769 94.5,77C 116.5,76.3333 138.5,76.3333 160.5,77C 162.176,78.1769 163.509,79.6769 164.5,81.5C 168.765,80.5614 173.098,80.2281 177.5,80.5 Z"/></g>
<g><path style="opacity:1" fill="#d27587" d="M 216.5,74.5 C 217.924,76.5145 218.59,78.8478 218.5,81.5C 218.784,84.7766 218.451,87.9433 217.5,91C 210.842,91.4996 204.175,91.6663 197.5,91.5C 198.234,90.2921 198.567,88.9587 198.5,87.5C 191.833,86.8333 185.167,86.1667 178.5,85.5C 178.371,83.7839 178.038,82.1172 177.5,80.5C 181.555,80.8242 185.555,80.4909 189.5,79.5C 190.127,78.5832 190.461,77.5832 190.5,76.5C 197.027,76.2362 203.36,76.9029 209.5,78.5C 211.5,78.3333 213.5,78.1667 215.5,78C 216.337,76.9887 216.67,75.8221 216.5,74.5 Z"/></g>
<g><path style="opacity:1" fill="#f06f87" d="M 157.5,88.5 C 158.5,89.8333 159.5,91.1667 160.5,92.5C 135.498,92.3334 110.498,92.5 85.5,93C 84.8366,94.5185 83.8366,95.6851 82.5,96.5C 77.187,95.9022 71.8537,95.5688 66.5,95.5C 67.4054,94.2976 67.4054,92.9643 66.5,91.5C 71.621,90.0043 76.7876,88.3376 82,86.5C 87.4331,87.9899 92.9331,88.4899 98.5,88C 98.9574,87.586 99.2907,87.086 99.5,86.5C 118.167,85.1667 136.833,85.1667 155.5,86.5C 155.855,87.5223 156.522,88.189 157.5,88.5 Z"/></g>
<g><path style="opacity:1" fill="#f3637f" d="M 160.5,92.5 C 163.518,92.3354 166.518,92.502 169.5,93C 171.455,95.3068 172.788,97.4735 173.5,99.5C 172.294,100.88 172.627,102.047 174.5,103C 172.19,103.497 169.857,103.663 167.5,103.5C 161.803,102.983 156.136,102.15 150.5,101C 147.781,98.1406 144.448,96.6406 140.5,96.5C 130.499,97.5173 120.499,97.684 110.5,97C 108.5,98.3333 106.5,99.6667 104.5,101C 98.8637,102.15 93.1971,102.983 87.5,103.5C 85.1432,103.663 82.8098,103.497 80.5,103C 82.3731,102.047 82.7065,100.88 81.5,99.5C 83.4812,98.8946 83.8146,97.8946 82.5,96.5C 83.8366,95.6851 84.8366,94.5185 85.5,93C 110.498,92.5 135.498,92.3334 160.5,92.5 Z"/></g>
<g><path style="opacity:1" fill="#d36278" d="M 218.5,81.5 C 219.961,89.7795 219.627,98.1129 217.5,106.5C 212.833,106.5 208.167,106.5 203.5,106.5C 202.829,105.153 202.829,103.986 203.5,103C 201.19,102.503 198.857,102.337 196.5,102.5C 196.5,101.5 196.5,100.5 196.5,99.5C 193.833,99.5 191.167,99.5 188.5,99.5C 188.5,98.1667 188.5,96.8333 188.5,95.5C 182.653,93.0804 176.319,91.5804 169.5,91C 168.934,90.0053 168.267,89.172 167.5,88.5C 168.871,87.2132 170.705,86.5465 173,86.5C 175.601,86.5136 177.768,87.3469 179.5,89C 185.468,90.1608 191.468,90.9941 197.5,91.5C 204.175,91.6663 210.842,91.4996 217.5,91C 218.451,87.9433 218.784,84.7766 218.5,81.5 Z"/></g>
<g><path style="opacity:1" fill="#de6078" d="M 157.5,88.5 C 160.833,88.5 164.167,88.5 167.5,88.5C 168.267,89.172 168.934,90.0053 169.5,91C 176.319,91.5804 182.653,93.0804 188.5,95.5C 188.5,96.8333 188.5,98.1667 188.5,99.5C 191.167,99.5 193.833,99.5 196.5,99.5C 196.5,100.5 196.5,101.5 196.5,102.5C 198.857,102.337 201.19,102.503 203.5,103C 202.829,103.986 202.829,105.153 203.5,106.5C 198.5,106.5 193.5,106.5 188.5,106.5C 188.5,105.5 188.5,104.5 188.5,103.5C 186.167,103.5 183.833,103.5 181.5,103.5C 181.5,102.167 181.5,100.833 181.5,99.5C 178.833,99.5 176.167,99.5 173.5,99.5C 172.788,97.4735 171.455,95.3068 169.5,93C 166.518,92.502 163.518,92.3354 160.5,92.5C 159.5,91.1667 158.5,89.8333 157.5,88.5 Z"/></g>
<g><path style="opacity:1" fill="#d06378" d="M 36.5,81.5 C 36.5,83.1667 36.5,84.8333 36.5,86.5C 42.8333,86.5 49.1667,86.5 55.5,86.5C 56.2344,87.8775 56.9011,89.3775 57.5,91C 60.4816,91.498 63.4816,91.6646 66.5,91.5C 67.4054,92.9643 67.4054,94.2976 66.5,95.5C 66.5,96.8333 66.5,98.1667 66.5,99.5C 63.8333,99.5 61.1667,99.5 58.5,99.5C 58.5,100.5 58.5,101.5 58.5,102.5C 55.0844,103.106 52.4178,102.106 50.5,99.5C 45.8442,98.4312 41.1776,98.4312 36.5,99.5C 36.7373,98.209 36.404,97.209 35.5,96.5C 35.1795,91.3054 35.5128,86.3054 36.5,81.5 Z"/></g>
<g><path style="opacity:1" fill="#fa5a79" d="M 167.5,103.5 C 167.629,105.216 167.962,106.883 168.5,108.5C 155.148,106.515 141.482,105.515 127.5,105.5C 113.518,105.515 99.8516,106.515 86.5,108.5C 87.038,106.883 87.3713,105.216 87.5,103.5C 93.1971,102.983 98.8637,102.15 104.5,101C 106.5,99.6667 108.5,98.3333 110.5,97C 120.499,97.684 130.499,97.5173 140.5,96.5C 144.448,96.6406 147.781,98.1406 150.5,101C 156.136,102.15 161.803,102.983 167.5,103.5 Z"/></g>
<g><path style="opacity:1" fill="#ce576e" d="M 66.5,95.5 C 71.8537,95.5688 77.187,95.9022 82.5,96.5C 83.8146,97.8946 83.4812,98.8946 81.5,99.5C 78.8333,99.5 76.1667,99.5 73.5,99.5C 73.5,100.833 73.5,102.167 73.5,103.5C 71.1667,103.5 68.8333,103.5 66.5,103.5C 66.5,104.5 66.5,105.5 66.5,106.5C 56.8333,106.5 47.1667,106.5 37.5,106.5C 36.6261,103.211 35.9595,99.8774 35.5,96.5C 36.404,97.209 36.7373,98.209 36.5,99.5C 41.1776,98.4312 45.8442,98.4312 50.5,99.5C 52.4178,102.106 55.0844,103.106 58.5,102.5C 58.5,101.5 58.5,100.5 58.5,99.5C 61.1667,99.5 63.8333,99.5 66.5,99.5C 66.5,98.1667 66.5,96.8333 66.5,95.5 Z"/></g>
<g><path style="opacity:1" fill="#db506a" d="M 173.5,99.5 C 176.167,99.5 178.833,99.5 181.5,99.5C 181.5,100.833 181.5,102.167 181.5,103.5C 183.833,103.5 186.167,103.5 188.5,103.5C 188.5,104.5 188.5,105.5 188.5,106.5C 193.5,106.5 198.5,106.5 203.5,106.5C 208.167,106.5 212.833,106.5 217.5,106.5C 217.293,109.241 216.293,111.574 214.5,113.5C 211.246,114.479 207.913,115.146 204.5,115.5C 197.217,115.112 189.884,115.112 182.5,115.5C 182.67,114.178 182.337,113.011 181.5,112C 179.527,111.505 177.527,111.338 175.5,111.5C 175.5,110.5 175.5,109.5 175.5,108.5C 173.167,108.5 170.833,108.5 168.5,108.5C 167.962,106.883 167.629,105.216 167.5,103.5C 169.857,103.663 172.19,103.497 174.5,103C 172.627,102.047 172.294,100.88 173.5,99.5 Z"/></g>
<g><path style="opacity:1" fill="#fb4e70" d="M 168.5,108.5 C 170.055,111.209 170.722,113.875 170.5,116.5C 166.774,116.823 163.107,116.489 159.5,115.5C 159.135,114.098 158.301,113.098 157,112.5C 137.333,113.833 117.667,113.833 98,112.5C 96.4053,113.356 95.572,114.689 95.5,116.5C 91.774,116.823 88.1073,116.489 84.5,115.5C 84.6962,113.324 85.3629,110.991 86.5,108.5C 99.8516,106.515 113.518,105.515 127.5,105.5C 141.482,105.515 155.148,106.515 168.5,108.5 Z"/></g>
<g><path style="opacity:1" fill="#d74e68" d="M 81.5,99.5 C 82.7065,100.88 82.3731,102.047 80.5,103C 82.8098,103.497 85.1432,103.663 87.5,103.5C 87.3713,105.216 87.038,106.883 86.5,108.5C 84.1667,108.5 81.8333,108.5 79.5,108.5C 79.5,109.5 79.5,110.5 79.5,111.5C 75.1161,111.174 70.7828,111.508 66.5,112.5C 67.6405,113.425 67.6405,114.259 66.5,115C 64.8659,115.494 63.1992,115.66 61.5,115.5C 61.5,116.833 61.5,118.167 61.5,119.5C 64.6646,118.964 67.3312,119.797 69.5,122C 67.5,122.333 65.5,122.667 63.5,123C 62.8333,124.333 61.8333,125.333 60.5,126C 67.4921,126.5 74.4921,126.666 81.5,126.5C 113.833,126.5 146.167,126.5 178.5,126.5C 186.167,126.5 193.833,126.5 201.5,126.5C 203.833,126.5 206.167,126.5 208.5,126.5C 217.167,126.5 225.833,126.5 234.5,126.5C 236.833,126.5 239.167,126.5 241.5,126.5C 241.5,126.833 241.5,127.167 241.5,127.5C 230.167,127.5 218.833,127.5 207.5,127.5C 156.833,127.5 106.167,127.5 55.5,127.5C 52.5,127.5 49.5,127.5 46.5,127.5C 42.685,120.868 39.685,113.868 37.5,106.5C 47.1667,106.5 56.8333,106.5 66.5,106.5C 66.5,105.5 66.5,104.5 66.5,103.5C 68.8333,103.5 71.1667,103.5 73.5,103.5C 73.5,102.167 73.5,100.833 73.5,99.5C 76.1667,99.5 78.8333,99.5 81.5,99.5 Z"/></g>
<g><path style="opacity:1" fill="#e4405f" d="M 86.5,108.5 C 85.3629,110.991 84.6962,113.324 84.5,115.5C 88.1073,116.489 91.774,116.823 95.5,116.5C 95.5,117.5 95.5,118.5 95.5,119.5C 93.4727,119.338 91.4727,119.505 89.5,120C 90.8333,120.667 90.8333,121.333 89.5,122C 85.7329,121.759 83.0662,123.259 81.5,126.5C 74.4921,126.666 67.4921,126.5 60.5,126C 61.8333,125.333 62.8333,124.333 63.5,123C 65.5,122.667 67.5,122.333 69.5,122C 67.3312,119.797 64.6646,118.964 61.5,119.5C 61.5,118.167 61.5,116.833 61.5,115.5C 63.1992,115.66 64.8659,115.494 66.5,115C 67.6405,114.259 67.6405,113.425 66.5,112.5C 70.7828,111.508 75.1161,111.174 79.5,111.5C 79.5,110.5 79.5,109.5 79.5,108.5C 81.8333,108.5 84.1667,108.5 86.5,108.5 Z"/></g>
<g><path style="opacity:1" fill="#e34160" d="M 168.5,108.5 C 170.833,108.5 173.167,108.5 175.5,108.5C 175.5,109.5 175.5,110.5 175.5,111.5C 177.527,111.338 179.527,111.505 181.5,112C 182.337,113.011 182.67,114.178 182.5,115.5C 181.209,116.473 181.209,117.473 182.5,118.5C 184.078,119.298 185.744,119.798 187.5,120C 186.833,120.667 186.167,121.333 185.5,122C 190.646,124.089 195.979,125.589 201.5,126.5C 193.833,126.5 186.167,126.5 178.5,126.5C 177.067,125.167 175.733,123.667 174.5,122C 174.833,121.667 175.167,121.333 175.5,121C 173.833,120.667 172.167,120.333 170.5,120C 171.684,118.855 171.684,117.688 170.5,116.5C 170.722,113.875 170.055,111.209 168.5,108.5 Z"/></g>
<g><path style="opacity:1" fill="#fc4065" d="M 170.5,116.5 C 171.684,117.688 171.684,118.855 170.5,120C 172.167,120.333 173.833,120.667 175.5,121C 175.167,121.333 174.833,121.667 174.5,122C 175.733,123.667 177.067,125.167 178.5,126.5C 146.167,126.5 113.833,126.5 81.5,126.5C 83.0662,123.259 85.7329,121.759 89.5,122C 90.8333,121.333 90.8333,120.667 89.5,120C 91.4727,119.505 93.4727,119.338 95.5,119.5C 95.5,118.5 95.5,117.5 95.5,116.5C 95.572,114.689 96.4053,113.356 98,112.5C 117.667,113.833 137.333,113.833 157,112.5C 158.301,113.098 159.135,114.098 159.5,115.5C 163.107,116.489 166.774,116.823 170.5,116.5 Z"/></g>
<g><path style="opacity:1" fill="#cb3a55" d="M 214.5,113.5 C 213.308,118.217 211.308,122.55 208.5,126.5C 206.167,126.5 203.833,126.5 201.5,126.5C 195.979,125.589 190.646,124.089 185.5,122C 186.167,121.333 186.833,120.667 187.5,120C 185.744,119.798 184.078,119.298 182.5,118.5C 181.209,117.473 181.209,116.473 182.5,115.5C 189.884,115.112 197.217,115.112 204.5,115.5C 207.913,115.146 211.246,114.479 214.5,113.5 Z"/></g>
<g><path style="opacity:0.996" fill="#c7c6c6" d="M 12.5,128.5 C 13.552,128.351 14.552,128.517 15.5,129C 15.9617,169.254 32.9617,200.587 66.5,223C 91.1877,238.071 117.854,243.404 146.5,239C 156.057,236.975 165.391,234.475 174.5,231.5C 171.034,233.608 167.367,235.442 163.5,237C 138.052,244.615 112.719,244.281 87.5,236C 39.6646,216.181 14.6646,180.347 12.5,128.5 Z"/></g>
<g><path style="opacity:1" fill="#dad9d9" d="M 12.5,128.5 C 12.5,128.167 12.5,127.833 12.5,127.5C 19.8333,127.5 27.1667,127.5 34.5,127.5C 31.7131,128.477 28.7131,128.81 25.5,128.5C 23.5,128.5 21.5,128.5 19.5,128.5C 19.2974,141.248 21.4641,153.582 26,165.5C 32.2203,178.072 39.7203,189.906 48.5,201C 60.8657,212.387 74.5323,221.721 89.5,229C 114.833,237.667 140.167,237.667 165.5,229C 177.516,222.998 188.849,215.998 199.5,208C 211.399,195.404 221.232,181.237 229,165.5C 233.536,153.582 235.703,141.248 235.5,128.5C 233.5,128.5 231.5,128.5 229.5,128.5C 226.833,128.5 224.167,128.5 221.5,128.5C 219.833,128.5 218.167,128.5 216.5,128.5C 213.287,128.81 210.287,128.477 207.5,127.5C 218.833,127.5 230.167,127.5 241.5,127.5C 241.804,143.146 238.97,158.146 233,172.5C 221.311,200.022 201.811,219.689 174.5,231.5C 165.391,234.475 156.057,236.975 146.5,239C 117.854,243.404 91.1877,238.071 66.5,223C 32.9617,200.587 15.9617,169.254 15.5,129C 14.552,128.517 13.552,128.351 12.5,128.5 Z"/></g>
<g><path style="opacity:1" fill="#fefefe" d="M 55.5,127.5 C 106.167,127.5 156.833,127.5 207.5,127.5C 210.287,128.477 213.287,128.81 216.5,128.5C 212.718,175.246 188.051,204.079 142.5,215C 107.111,219.715 78.2773,208.215 56,180.5C 45.0798,164.906 39.2465,147.573 38.5,128.5C 44.358,128.822 50.0247,128.489 55.5,127.5 Z"/></g>
<g><path style="opacity:1" fill="#e4e3e2" d="M 25.5,128.5 C 27.7016,173.513 49.3682,205.013 90.5,223C 138.272,238.179 178.105,226.679 210,188.5C 222.802,170.592 229.302,150.592 229.5,128.5C 231.5,128.5 233.5,128.5 235.5,128.5C 235.703,141.248 233.536,153.582 229,165.5C 221.232,181.237 211.399,195.404 199.5,208C 188.849,215.998 177.516,222.998 165.5,229C 140.167,237.667 114.833,237.667 89.5,229C 74.5323,221.721 60.8657,212.387 48.5,201C 39.7203,189.906 32.2203,178.072 26,165.5C 21.4641,153.582 19.2974,141.248 19.5,128.5C 21.5,128.5 23.5,128.5 25.5,128.5 Z"/></g>
<g><path style="opacity:1" fill="#eeeeed" d="M 34.5,127.5 C 38.5,127.5 42.5,127.5 46.5,127.5C 49.5,127.5 52.5,127.5 55.5,127.5C 50.0247,128.489 44.358,128.822 38.5,128.5C 37.5,128.5 36.5,128.5 35.5,128.5C 34.253,140.663 36.0863,152.33 41,163.5C 50.2819,185.452 65.7819,201.619 87.5,212C 110.808,222.745 134.642,223.912 159,215.5C 164.173,212.331 169.673,209.831 175.5,208C 179.424,203.698 184.091,200.364 189.5,198C 195.136,193.042 199.969,187.542 204,181.5C 207.039,175.446 210.372,169.446 214,163.5C 218.432,152.237 220.932,140.571 221.5,128.5C 224.167,128.5 226.833,128.5 229.5,128.5C 229.302,150.592 222.802,170.592 210,188.5C 178.105,226.679 138.272,238.179 90.5,223C 49.3682,205.013 27.7016,173.513 25.5,128.5C 28.7131,128.81 31.7131,128.477 34.5,127.5 Z"/></g>
<g><path style="opacity:1" fill="#f7f6f5" d="M 38.5,128.5 C 39.2465,147.573 45.0798,164.906 56,180.5C 78.2773,208.215 107.111,219.715 142.5,215C 188.051,204.079 212.718,175.246 216.5,128.5C 218.167,128.5 219.833,128.5 221.5,128.5C 220.932,140.571 218.432,152.237 214,163.5C 210.372,169.446 207.039,175.446 204,181.5C 199.969,187.542 195.136,193.042 189.5,198C 184.091,200.364 179.424,203.698 175.5,208C 169.673,209.831 164.173,212.331 159,215.5C 134.642,223.912 110.808,222.745 87.5,212C 65.7819,201.619 50.2819,185.452 41,163.5C 36.0863,152.33 34.253,140.663 35.5,128.5C 36.5,128.5 37.5,128.5 38.5,128.5 Z"/></g>
</svg>
